<svg id="visual" viewBox="0 0 960 540" width="960" height="540" xmlns="http://www.w3.org/2000/svg" xmlns:xlink="http://www.w3.org/1999/xlink" version="1.1"><rect x="0" y="0" width="960" height="540" fill="#071630"></rect><path d="M0 381L10 368.2C20 355.3 40 329.7 60 340.7C80 351.7 100 399.3 120 406.2C140 413 160 379 180 361.7C200 344.3 220 343.7 240 359.7C260 375.7 280 408.3 300 427.7C320 447 340 453 360 445.2C380 437.3 400 415.7 420 404.5C440 393.3 460 392.7 480 391.5C500 390.3 520 388.7 540 365.5C560 342.3 580 297.7 600 276C620 254.3 640 255.7 660 269.5C680 283.3 700 309.7 720 338C740 366.3 760 396.7 780 404.3C800 412 820 397 840 386.7C860 376.3 880 370.7 900 353.2C920 335.7 940 306.3 950 291.7L960 277" fill="none" stroke-linecap="round" stroke-linejoin="miter" stroke="#d1a2f9" stroke-width="40"></path></svg>