<svg id="visual" viewBox="0 0 960 540" width="960" height="540" xmlns="http://www.w3.org/2000/svg" xmlns:xlink="http://www.w3.org/1999/xlink" version="1.1"><rect x="0" y="0" width="960" height="540" fill="#071630"></rect><path d="M0 373L22.8 382.2C45.7 391.3 91.3 409.7 137 415C182.7 420.3 228.3 412.7 274 397.8C319.7 383 365.3 361 411.2 356.8C457 352.7 503 366.3 548.8 376.3C594.7 386.3 640.3 392.7 686 400.3C731.7 408 777.3 417 823 418.3C868.7 419.7 914.3 413.3 937.2 410.2L960 407L960 541L937.2 541C914.3 541 868.7 541 823 541C777.3 541 731.7 541 686 541C640.3 541 594.7 541 548.8 541C503 541 457 541 411.2 541C365.3 541 319.7 541 274 541C228.3 541 182.7 541 137 541C91.3 541 45.7 541 22.8 541L0 541Z" fill="#e1bffb"></path><path d="M0 398L22.8 401.3C45.7 404.7 91.3 411.3 137 415.5C182.7 419.7 228.3 421.3 274 420.5C319.7 419.7 365.3 416.3 411.2 418.5C457 420.7 503 428.3 548.8 421.7C594.7 415 640.3 394 686 386C731.7 378 777.3 383 823 394.7C868.7 406.3 914.3 424.7 937.2 433.8L960 443L960 541L937.2 541C914.3 541 868.7 541 823 541C777.3 541 731.7 541 686 541C640.3 541 594.7 541 548.8 541C503 541 457 541 411.2 541C365.3 541 319.7 541 274 541C228.3 541 182.7 541 137 541C91.3 541 45.7 541 22.8 541L0 541Z" fill="#d9b0fa"></path><path d="M0 429L22.8 428C45.7 427 91.3 425 137 428.8C182.7 432.7 228.3 442.3 274 446.2C319.7 450 365.3 448 411.2 449.5C457 451 503 456 548.8 460.5C594.7 465 640.3 469 686 465.3C731.7 461.7 777.3 450.3 823 450.3C868.7 450.3 914.3 461.7 937.2 467.3L960 473L960 541L937.2 541C914.3 541 868.7 541 823 541C777.3 541 731.7 541 686 541C640.3 541 594.7 541 548.8 541C503 541 457 541 411.2 541C365.3 541 319.7 541 274 541C228.3 541 182.7 541 137 541C91.3 541 45.7 541 22.8 541L0 541Z" fill="#d1a2f9"></path><path d="M0 502L22.8 497C45.7 492 91.3 482 137 471.8C182.7 461.7 228.3 451.3 274 457.2C319.7 463 365.3 485 411.2 493.7C457 502.3 503 497.7 548.8 492.5C594.7 487.3 640.3 481.7 686 475.5C731.7 469.3 777.3 462.7 823 462.3C868.7 462 914.3 468 937.2 471L960 474L960 541L937.2 541C914.3 541 868.7 541 823 541C777.3 541 731.7 541 686 541C640.3 541 594.7 541 548.8 541C503 541 457 541 411.2 541C365.3 541 319.7 541 274 541C228.3 541 182.7 541 137 541C91.3 541 45.7 541 22.8 541L0 541Z" fill="#cb96f9"></path><path d="M0 507L22.8 509.3C45.7 511.7 91.3 516.3 137 518C182.7 519.7 228.3 518.3 274 511.8C319.7 505.3 365.3 493.7 411.2 493C457 492.3 503 502.7 548.8 506.5C594.7 510.3 640.3 507.7 686 503.8C731.7 500 777.3 495 823 498.3C868.7 501.7 914.3 513.3 937.2 519.2L960 525L960 541L937.2 541C914.3 541 868.7 541 823 541C777.3 541 731.7 541 686 541C640.3 541 594.7 541 548.8 541C503 541 457 541 411.2 541C365.3 541 319.7 541 274 541C228.3 541 182.7 541 137 541C91.3 541 45.7 541 22.8 541L0 541Z" fill="#c58af8"></path></svg>